<?xml version="1.0" encoding="utf-8"?>
<!-- Generator: Adobe Illustrator 23.0.1, SVG Export Plug-In . SVG Version: 6.00 Build 0)  -->
<svg version="1.1" id="Layer_1" xmlns="http://www.w3.org/2000/svg" xmlns:xlink="http://www.w3.org/1999/xlink" x="0px" y="0px"
	 viewBox="0 0 1000 364.78" style="enable-background:new 0 0 1000 364.78;" xml:space="preserve">
<style type="text/css">
	.st0{fill:#FFFFFF;}
</style>
<g>
	<g>
		<g>
			<g>
				<path class="st0" d="M378.08,38.97h28.51c15.5,0,26.35,6.94,26.35,20.27c0,6.51-3.14,13.12-9,16.48v0.22
					c8.89,2.71,12.14,10.62,12.14,17.45c0,16.91-14.09,23.09-29.49,23.09h-28.51V38.97z M406.81,69c4.77,0,6.83-3.47,6.83-7.16
					c0-3.58-2.06-6.61-7.15-6.61h-9.43V69H406.81z M408.44,100.23c5.53,0,8.24-3.79,8.24-8.13c0-4.34-2.6-7.91-8.13-7.91h-11.49
					v16.05H408.44z"/>
				<path class="st0" d="M469.26,59.35c16.48,0,25.8,11.49,25.8,27c0,1.84-0.43,5.85-0.43,5.85h-35.24
					c1.41,6.83,7.05,9.97,13.01,9.97c8.02,0,15.4-5.64,15.4-5.64l6.94,13.12c0,0-9,8.13-23.85,8.13
					c-19.95,0-30.68-14.42-30.68-29.27C440.2,72.15,451.26,59.35,469.26,59.35z M476.2,81.47c0-4.23-2.93-8.02-7.37-8.02
					c-5.42,0-8.02,3.9-9,8.02H476.2z"/>
				<path class="st0" d="M505.8,96.97c0,0,6.18,5.64,14.2,5.64c2.82,0,5.53-0.76,5.53-2.6c0-4.88-26.13-5.42-26.13-23.64
					c0-10.52,10.08-17.02,22.98-17.02c13.01,0,19.62,6.4,19.62,6.4l-6.4,13.33c0,0-5.42-4.55-13.23-4.55
					c-2.82,0-5.53,0.76-5.53,2.71c0,4.23,26.13,4.88,26.13,22.88c0,9.54-8.46,17.67-22.88,17.67c-13.99,0-22.34-8.24-22.34-8.24
					L505.8,96.97z"/>
				<path class="st0" d="M552.85,76.27h-7.16V61.63h7.7V45.58h18.21v16.05h11.71v14.64h-11.71V93.4c0,6.29,6.4,7.16,9.97,7.16
					c1.52,0,2.49-0.11,2.49-0.11v16.26c0,0-2.06,0.32-5.1,0.32c-8.89,0-26.13-2.39-26.13-21.14V76.27z"/>
			</g>
		</g>
		<g>
			<g>
				<path class="st0" d="M416.89,188.31h-24.18l-4.66,16.26h-19.52l26.35-77.52h19.95l26.35,77.52h-19.52L416.89,188.31z
					 M404.75,144.73c0,0-1.74,8.46-3.15,13.34l-4.45,15.07h15.29l-4.34-15.07c-1.41-4.88-3.14-13.34-3.14-13.34H404.75z"/>
				<path class="st0" d="M466.22,147.44c11.28,0,15.94,5.96,15.94,5.96h0.22c0,0-0.22-1.19-0.22-3.04v-1.63h17.56v77.52h-18.76
					v-21.9c0-2.82,0.22-4.77,0.22-4.77h-0.22c0,0-4.88,6.29-15.07,6.29c-15.18,0-25.15-11.93-25.15-29.27
					C440.75,158.93,451.37,147.44,466.22,147.44z M470.56,190.37c5.64,0,10.95-4.12,10.95-13.77c0-6.72-3.58-13.33-10.95-13.33
					c-5.86,0-10.95,4.77-10.95,13.33C459.61,184.95,464.06,190.37,470.56,190.37z"/>
				<path class="st0" d="M509.7,148.74h18.76v32.74c0,5.2,2.06,7.37,5.96,7.37c8.02,0,11.82-7.05,11.82-15.39v-24.72h18.76v55.84
					h-18v-4.88c0-1.84,0.22-3.47,0.22-3.47H547c-3.04,5.96-9.97,9.65-17.46,9.65c-11.06,0-19.84-5.2-19.84-20.92V148.74z"/>
				<path class="st0" d="M603.92,169.77h0.76v-0.98c0-4.66-3.58-6.18-8.24-6.18c-7.05,0-15.07,5.31-15.07,5.31l-6.51-13.23
					c0,0,9.65-7.26,23.42-7.26c15.72,0,25.15,8.57,25.15,22.77v34.37H606.3v-3.36c0-1.84,0.22-3.47,0.22-3.47h-0.22
					c0,0-4.12,8.13-15.83,8.13c-10.41,0-18.97-6.94-18.97-18C571.5,171.62,595.25,169.77,603.92,169.77z M595.68,191.57
					c4.88,0,9.22-5.31,9.22-9.87v-1.19h-1.73c-5.96,0-12.79,1.73-12.79,6.4C590.37,189.51,591.99,191.57,595.68,191.57z"/>
				<path class="st0" d="M660.3,147.44c15.18,0,22.23,8.46,22.23,8.46l-7.92,12.58c0,0-5.42-5.42-13.12-5.42
					c-8.89,0-13.34,6.72-13.34,13.34s4.55,13.88,13.99,13.88c7.8,0,15.29-6.72,15.29-6.72l6.83,13.12c0,0-8.35,9.21-23.96,9.21
					c-19.95,0-31.12-13.88-31.12-29.27C629.18,161.64,640.24,147.44,660.3,147.44z"/>
				<path class="st0" d="M689.14,148.74h18.76v32.74c0,5.2,2.06,7.37,5.96,7.37c8.02,0,11.82-7.05,11.82-15.39v-24.72h18.76v55.84
					h-18v-4.88c0-1.84,0.22-3.47,0.22-3.47h-0.22c-3.04,5.96-9.98,9.65-17.46,9.65c-11.06,0-19.84-5.2-19.84-20.92V148.74z"/>
				<path class="st0" d="M754.41,127.06h18.76v54.43c0,5.31,0.97,7.16,5.2,7.16c1.19,0,2.28-0.11,2.28-0.11v16.26
					c0,0-2.6,0.32-5.64,0.32c-9.98,0-20.6-2.39-20.6-21.14V127.06z"/>
				<path class="st0" d="M789.43,164.35h-7.16v-14.64h7.7v-16.05h18.22v16.05h11.71v14.64h-11.71v17.13c0,6.29,6.4,7.16,9.97,7.16
					c1.52,0,2.49-0.11,2.49-0.11v16.26c0,0-2.06,0.32-5.09,0.32c-8.89,0-26.13-2.39-26.13-21.14V164.35z"/>
				<path class="st0" d="M827.7,148.74h18.76v32.74c0,5.2,2.06,7.37,5.96,7.37c8.02,0,11.82-7.05,11.82-15.39v-24.72H883v55.84h-18
					v-4.88c0-1.84,0.22-3.47,0.22-3.47H865c-3.04,5.96-9.97,9.65-17.46,9.65c-11.06,0-19.84-5.2-19.84-20.92V148.74z"/>
				<path class="st0" d="M891.56,148.74h18v9.43c0,1.84-0.22,3.47-0.22,3.47h0.22c2.39-7.59,9.43-13.88,17.78-13.88
					c1.08,0,2.17,0.22,2.17,0.22v18.43c0,0-1.52-0.33-3.79-0.33c-4.45,0-11.71,1.41-14.42,9.76c-0.65,2.06-0.97,4.55-0.97,7.59
					v21.14h-18.76V148.74z"/>
				<path class="st0" d="M960.08,147.44c16.48,0,25.8,11.49,25.8,27c0,1.84-0.43,5.86-0.43,5.86h-35.24
					c1.41,6.83,7.05,9.97,13.01,9.97c8.02,0,15.4-5.64,15.4-5.64l6.94,13.12c0,0-9,8.13-23.85,8.13
					c-19.95,0-30.68-14.42-30.68-29.27C931.03,160.23,942.09,147.44,960.08,147.44z M967.02,169.56c0-4.23-2.93-8.02-7.37-8.02
					c-5.42,0-8.02,3.9-9,8.02H967.02z"/>
			</g>
		</g>
		<g>
			<g>
				<path class="st0" d="M378.08,221.2h32.2c15.07,0,25.26,11.06,25.26,26.67c0,15.61-10.19,26.89-25.26,26.89h-13.23v23.96h-18.97
					V221.2z M406.38,258.49c6.61,0,9.87-4.44,9.87-10.62c0-6.18-3.25-10.41-9.54-10.41h-9.65v21.03H406.38z"/>
				<path class="st0" d="M441.5,242.88h18v9.43c0,1.84-0.22,3.47-0.22,3.47h0.22c2.39-7.59,9.43-13.88,17.78-13.88
					c1.08,0,2.17,0.22,2.17,0.22v18.43c0,0-1.52-0.33-3.79-0.33c-4.45,0-11.71,1.41-14.42,9.76c-0.65,2.06-0.98,4.55-0.98,7.59
					v21.14H441.5V242.88z"/>
				<path class="st0" d="M513.17,263.92h0.76v-0.98c0-4.66-3.58-6.18-8.24-6.18c-7.05,0-15.07,5.31-15.07,5.31l-6.51-13.23
					c0,0,9.65-7.26,23.42-7.26c15.72,0,25.15,8.56,25.15,22.77v34.37h-17.13v-3.36c0-1.84,0.22-3.47,0.22-3.47h-0.22
					c0,0-4.12,8.13-15.83,8.13c-10.41,0-18.97-6.94-18.97-18C480.75,265.76,504.5,263.92,513.17,263.92z M504.93,285.71
					c4.88,0,9.21-5.31,9.21-9.87v-1.19h-1.73c-5.96,0-12.79,1.73-12.79,6.4C499.62,283.65,501.24,285.71,504.93,285.71z"/>
				<path class="st0" d="M569.55,241.58c15.18,0,22.23,8.46,22.23,8.46l-7.92,12.58c0,0-5.42-5.42-13.12-5.42
					c-8.89,0-13.34,6.72-13.34,13.34s4.55,13.88,13.99,13.88c7.8,0,15.29-6.72,15.29-6.72l6.83,13.12c0,0-8.35,9.21-23.96,9.21
					c-19.95,0-31.12-13.88-31.12-29.27C538.43,255.78,549.49,241.58,569.55,241.58z"/>
				<path class="st0" d="M601.97,258.49h-7.16v-14.64h7.7v-16.05h18.22v16.05h11.71v14.64h-11.71v17.13c0,6.29,6.4,7.16,9.97,7.16
					c1.52,0,2.49-0.11,2.49-0.11v16.26c0,0-2.06,0.32-5.09,0.32c-8.89,0-26.13-2.39-26.13-21.14V258.49z"/>
				<path class="st0" d="M641,242.88h18.76v55.84H641V242.88z M641.22,221.2h18.32v14.64h-18.32V221.2z"/>
				<path class="st0" d="M697.49,241.58c15.18,0,22.23,8.46,22.23,8.46l-7.92,12.58c0,0-5.42-5.42-13.12-5.42
					c-8.89,0-13.34,6.72-13.34,13.34s4.55,13.88,13.99,13.88c7.8,0,15.29-6.72,15.29-6.72l6.83,13.12c0,0-8.35,9.21-23.96,9.21
					c-19.95,0-31.12-13.88-31.12-29.27C666.37,255.78,677.43,241.58,697.49,241.58z"/>
				<path class="st0" d="M752.13,241.58c16.48,0,25.8,11.49,25.8,27c0,1.84-0.43,5.86-0.43,5.86h-35.24
					c1.41,6.83,7.05,9.97,13.01,9.97c8.02,0,15.4-5.64,15.4-5.64l6.94,13.12c0,0-9,8.13-23.85,8.13
					c-19.95,0-30.68-14.42-30.68-29.27C723.07,254.37,734.13,241.58,752.13,241.58z M759.07,263.7c0-4.23-2.93-8.02-7.37-8.02
					c-5.42,0-8.02,3.9-9,8.02H759.07z"/>
				<path class="st0" d="M788.67,279.2c0,0,6.18,5.64,14.2,5.64c2.82,0,5.53-0.76,5.53-2.6c0-4.88-26.13-5.42-26.13-23.64
					c0-10.52,10.08-17.02,22.99-17.02c13.01,0,19.62,6.4,19.62,6.4l-6.4,13.33c0,0-5.42-4.55-13.23-4.55
					c-2.82,0-5.53,0.76-5.53,2.71c0,4.23,26.13,4.88,26.13,22.88c0,9.54-8.46,17.67-22.88,17.67c-13.98,0-22.33-8.24-22.33-8.24
					L788.67,279.2z"/>
			</g>
		</g>
	</g>
	<g>
		<circle class="st0" cx="237.06" cy="169.39" r="14.48"/>
		<path class="st0" d="M335.96,173.76l-2-2.39c-40.21-48.04-99.16-75.59-161.73-75.59c-29.63,0-58.3,6.03-85.19,17.92
			c-13.85,6.13-26.87,13.65-38.96,22.48c18.39-50.85,67.15-87.28,124.26-87.28c36.26,0,69.16,14.69,93.05,38.44
			c6.92,6.88,14.82,12.71,23.38,17.4c3.61,1.98,7.14,4.02,10.59,6.14c6.11,3.74,13.08-3.13,9.47-9.32
			c-27.92-47.81-80.23-79.71-139.74-78.5c-85.1,1.72-154,71.5-154.69,156.61c-0.71,87.7,70.42,159.27,157.95,159.27
			c60.65,0,113.42-34.36,139.87-84.64c3.08-5.85-3.53-12.02-9.17-8.57c-1.04,0.64-2.08,1.27-3.14,1.89
			c-12.59,7.49-24.09,16.62-34.48,26.96c-24.45,24.33-58.35,39.17-95.64,38.46c-69.61-1.32-126.73-57.27-129.43-126.83
			c-0.12-3.11-0.12-6.19-0.03-9.25c16.48-16.78,35.7-30.09,57.18-39.59c23.58-10.43,48.72-15.71,74.73-15.71
			c49.96,0,97.28,20.02,131.99,55.39c1.42,1.45,1.42,3.8,0,5.25c-31.53,32.14-73.47,51.59-118.34,54.89
			c-2.48,0.18-4.91-0.82-6.56-2.67c-12.38-13.87-19.29-31.77-19.29-50.72c0-9.95,1.94-19.64,5.56-28.6c0.86-2.12-0.96-4.35-3.21-4
			c-0.1,0.02-0.2,0.03-0.31,0.05c-15.9,2.5-27.86,16.11-27.92,32.2c0,0.12,0,0.23,0,0.35c0,27.69,10.86,53.75,30.36,72.91
			c4.62,4.54,10.94,6.94,17.41,6.64c58.94-2.69,113.92-29.82,152.05-75.37l2-2.39C338.82,182.17,338.82,177.19,335.96,173.76z"/>
	</g>
</g>
</svg>
