<svg xmlns="http://www.w3.org/2000/svg" viewBox="0 0 800 600" fill="none">
  <defs>
    <linearGradient id="bg5" x1="0" y1="0" x2="800" y2="600" gradientUnits="userSpaceOnUse">
      <stop offset="0%" stop-color="#0a1e3d"/>
      <stop offset="100%" stop-color="#1a0d30"/>
    </linearGradient>
    <linearGradient id="fish1" x1="150" y1="220" x2="650" y2="380" gradientUnits="userSpaceOnUse">
      <stop offset="0%" stop-color="#f0a0a0"/>
      <stop offset="30%" stop-color="#e88888"/>
      <stop offset="60%" stop-color="#d07070"/>
      <stop offset="100%" stop-color="#f0b8b8"/>
    </linearGradient>
    <linearGradient id="fishbelly" x1="0" y1="0" x2="0" y2="1">
      <stop offset="0%" stop-color="rgba(255,255,255,0.3)"/>
      <stop offset="100%" stop-color="rgba(255,255,255,0)"/>
    </linearGradient>
    <radialGradient id="glow5" cx="400" cy="300" r="260" gradientUnits="userSpaceOnUse">
      <stop offset="0%" stop-color="rgba(200,100,100,0.1)"/>
      <stop offset="100%" stop-color="rgba(0,0,0,0)"/>
    </radialGradient>
    <filter id="shadow5" x="-10%" y="-10%" width="120%" height="120%">
      <feDropShadow dx="0" dy="6" stdDeviation="14" flood-color="#000" flood-opacity="0.4"/>
    </filter>
  </defs>
  <rect width="800" height="600" fill="url(#bg5)"/>
  <circle cx="400" cy="300" r="260" fill="url(#glow5)"/>
  <g filter="url(#shadow5)">
    <!-- Fish body -->
    <path d="M160,300 C180,240 240,190 340,180 C440,170 540,200 600,250 C640,280 660,310 650,340 C640,370 600,400 540,420 C480,440 380,445 300,430 C220,415 170,380 155,340 C148,320 150,310 160,300Z" fill="url(#fish1)" stroke="#c06060" stroke-width="1.5"/>
    <!-- Belly (lighter lower half) -->
    <path d="M170,320 C180,360 230,400 310,420 C380,435 470,435 540,415 C600,395 635,365 645,340 C640,365 605,395 545,415 C480,435 375,440 300,425 C220,410 175,370 170,320Z" fill="#f0c8c8" opacity="0.5"/>
    <!-- Scale pattern -->
    <g opacity="0.15" stroke="#a06060" stroke-width="0.5" fill="none">
      <path d="M250,220 C260,230 258,245 248,250 M280,210 C290,220 288,235 278,240 M310,205 C320,215 318,230 308,235 M340,200 C350,210 348,225 338,230 M370,198 C380,208 378,223 368,228 M400,200 C410,210 408,225 398,230 M430,205 C440,215 438,230 428,235 M460,215 C470,225 468,240 458,245 M490,228 C500,238 498,253 488,258 M520,245 C530,255 528,270 518,275"/>
      <path d="M240,260 C250,270 248,285 238,290 M270,252 C280,262 278,277 268,282 M300,248 C310,258 308,273 298,278 M330,245 C340,255 338,270 328,275 M360,244 C370,254 368,269 358,274 M390,246 C400,256 398,271 388,276 M420,250 C430,260 428,275 418,280 M450,258 C460,268 458,283 448,288 M480,268 C490,278 488,293 478,298 M510,280 C520,290 518,305 508,310"/>
      <path d="M230,300 C240,310 238,325 228,330 M260,295 C270,305 268,320 258,325 M290,290 C300,300 298,315 288,320 M320,288 C330,298 328,313 318,318 M350,287 C360,297 358,312 348,317 M380,290 C390,300 388,315 378,320 M410,295 C420,305 418,320 408,325 M440,302 C450,312 448,327 438,332 M470,312 C480,322 478,337 468,342 M500,325 C510,335 508,350 498,355"/>
    </g>
    <!-- Lateral line -->
    <path d="M200,290 C280,280 400,275 520,285 C580,290 625,300 650,310" stroke="#c06060" stroke-width="1.5" fill="none" opacity="0.4" stroke-dasharray="8,4"/>
    <!-- Dorsal fin -->
    <path d="M300,180 C310,140 340,110 380,100 C420,95 460,105 490,120 C510,130 530,155 540,180" fill="#d07070" stroke="#b06060" stroke-width="1" opacity="0.8"/>
    <g stroke="#b06060" stroke-width="0.8" fill="none" opacity="0.4">
      <path d="M320,175 C325,145 350,120 380,110"/>
      <path d="M360,178 C362,150 380,125 400,115"/>
      <path d="M400,180 C400,155 410,130 430,118"/>
      <path d="M440,182 C438,160 445,140 465,125"/>
      <path d="M480,185 C478,165 485,150 500,140"/>
    </g>
    <!-- Anal fin -->
    <path d="M380,435 C390,460 410,475 440,478 C460,480 490,470 510,450 C520,440 525,430 520,425" fill="#d07070" stroke="#b06060" stroke-width="1" opacity="0.7"/>
    <!-- Pectoral fin -->
    <path d="M250,310 C240,330 235,360 245,380 C252,392 265,388 270,375 C278,355 272,330 260,315" fill="#e88888" stroke="#c06060" stroke-width="1" opacity="0.7"/>
    <!-- Pelvic fin -->
    <path d="M340,400 C345,420 350,435 360,440 C368,443 375,435 372,425 C368,412 358,402 348,398" fill="#d07070" stroke="#b06060" stroke-width="1" opacity="0.6"/>
    <!-- Tail (caudal fin) -->
    <path d="M155,300 C130,270 110,240 100,220 C95,210 100,208 110,215 C125,228 145,260 155,290" fill="#e88888" stroke="#c06060" stroke-width="1"/>
    <path d="M155,310 C130,340 110,370 100,390 C95,400 100,402 110,395 C125,382 145,350 155,320" fill="#e88888" stroke="#c06060" stroke-width="1"/>
    <!-- Eye -->
    <circle cx="600" cy="280" r="18" fill="#fff" stroke="#c06060" stroke-width="1.5"/>
    <circle cx="602" cy="278" r="10" fill="#1a1a2e"/>
    <circle cx="605" cy="275" r="4" fill="#fff" opacity="0.7"/>
    <!-- Mouth -->
    <path d="M652,320 C660,322 665,328 660,335" stroke="#a06060" stroke-width="2" fill="none" stroke-linecap="round"/>
    <!-- Gill -->
    <path d="M565,260 C558,280 555,310 560,340" stroke="#c06060" stroke-width="2" fill="none" opacity="0.4"/>
  </g>
  <g opacity="0.12">
    <circle cx="140" cy="150" r="3" fill="#f0a0a0"/>
    <circle cx="700" cy="450" r="4" fill="#f0a0a0"/>
    <circle cx="120" cy="460" r="2" fill="#f0a0a0"/>
  </g>
  <text x="400" y="560" text-anchor="middle" font-family="'IBM Plex Sans',sans-serif" font-size="18" font-weight="500" fill="rgba(255,255,255,0.7)">Pink Perch · Nemipterus japonicus</text>
</svg>
