<svg xmlns="http://www.w3.org/2000/svg" viewBox="0 0 1200 600" fill="none">
<!-- Professional dot-matrix world map — simplified continent shapes using dot clusters -->
<style>
  .land { fill: rgba(255,255,255,0.12); }
  .india { fill: rgba(96,165,250,0.4); }
  .route { fill: rgba(96,165,250,0.2); }
</style>

<!-- North America -->
<g class="land">
  <!-- Canada/Alaska -->
  <circle cx="180" cy="95" r="3"/><circle cx="195" cy="90" r="3"/><circle cx="210" cy="85" r="3"/>
  <circle cx="225" cy="82" r="3"/><circle cx="240" cy="80" r="3"/><circle cx="255" cy="82" r="3"/>
  <circle cx="270" cy="85" r="3"/><circle cx="285" cy="90" r="3"/><circle cx="300" cy="88" r="3"/>
  <circle cx="170" cy="110" r="3"/><circle cx="185" cy="108" r="3"/><circle cx="200" cy="105" r="3"/>
  <circle cx="215" cy="100" r="3"/><circle cx="230" cy="97" r="3"/><circle cx="245" cy="95" r="3"/>
  <circle cx="260" cy="97" r="3"/><circle cx="275" cy="100" r="3"/><circle cx="290" cy="103" r="3"/>
  <!-- USA -->
  <circle cx="185" cy="125" r="3"/><circle cx="200" cy="122" r="3"/><circle cx="215" cy="118" r="3"/>
  <circle cx="230" cy="115" r="3"/><circle cx="245" cy="113" r="3"/><circle cx="260" cy="115" r="3"/>
  <circle cx="275" cy="118" r="3"/><circle cx="290" cy="120" r="3"/><circle cx="305" cy="118" r="3"/>
  <circle cx="190" cy="140" r="3"/><circle cx="205" cy="137" r="3"/><circle cx="220" cy="133" r="3"/>
  <circle cx="235" cy="130" r="3"/><circle cx="250" cy="128" r="3"/><circle cx="265" cy="130" r="3"/>
  <circle cx="280" cy="133" r="3"/><circle cx="295" cy="135" r="3"/>
  <circle cx="200" cy="155" r="3"/><circle cx="215" cy="152" r="3"/><circle cx="230" cy="148" r="3"/>
  <circle cx="245" cy="145" r="3"/><circle cx="260" cy="145" r="3"/><circle cx="275" cy="148" r="3"/>
  <!-- Mexico/Central America -->
  <circle cx="210" cy="170" r="3"/><circle cx="225" cy="167" r="3"/><circle cx="240" cy="163" r="3"/>
  <circle cx="255" cy="165" r="3"/>
  <circle cx="225" cy="183" r="3"/><circle cx="240" cy="180" r="3"/><circle cx="250" cy="185" r="3"/>
  <circle cx="260" cy="190" r="3"/>
</g>

<!-- South America -->
<g class="land">
  <circle cx="290" cy="220" r="3"/><circle cx="305" cy="215" r="3"/><circle cx="320" cy="212" r="3"/>
  <circle cx="335" cy="215" r="3"/><circle cx="345" cy="222" r="3"/>
  <circle cx="285" cy="237" r="3"/><circle cx="300" cy="233" r="3"/><circle cx="315" cy="230" r="3"/>
  <circle cx="330" cy="230" r="3"/><circle cx="345" cy="235" r="3"/><circle cx="355" cy="240" r="3"/>
  <circle cx="290" cy="255" r="3"/><circle cx="305" cy="250" r="3"/><circle cx="320" cy="248" r="3"/>
  <circle cx="335" cy="250" r="3"/><circle cx="348" cy="255" r="3"/>
  <circle cx="295" cy="272" r="3"/><circle cx="310" cy="268" r="3"/><circle cx="325" cy="265" r="3"/>
  <circle cx="340" cy="268" r="3"/>
  <circle cx="300" cy="290" r="3"/><circle cx="315" cy="287" r="3"/><circle cx="330" cy="285" r="3"/>
  <circle cx="305" cy="308" r="3"/><circle cx="320" cy="305" r="3"/><circle cx="332" cy="302" r="3"/>
  <circle cx="310" cy="325" r="3"/><circle cx="322" cy="320" r="3"/>
  <circle cx="315" cy="342" r="3"/><circle cx="325" cy="338" r="3"/>
  <circle cx="312" cy="360" r="3"/><circle cx="320" cy="355" r="3"/>
  <circle cx="305" cy="375" r="3"/><circle cx="315" cy="372" r="3"/>
  <circle cx="298" cy="390" r="3"/>
</g>

<!-- Europe -->
<g class="land">
  <!-- UK/Ireland -->
  <circle cx="475" cy="85" r="3"/><circle cx="482" cy="95" r="3"/>
  <circle cx="465" cy="92" r="3"/>
  <!-- Scandinavia -->
  <circle cx="510" cy="55" r="3"/><circle cx="520" cy="50" r="3"/><circle cx="530" cy="48" r="3"/>
  <circle cx="515" cy="68" r="3"/><circle cx="525" cy="63" r="3"/><circle cx="535" cy="60" r="3"/>
  <circle cx="545" cy="58" r="3"/>
  <!-- Western Europe -->
  <circle cx="490" cy="100" r="3"/><circle cx="500" cy="97" r="3"/><circle cx="510" cy="95" r="3"/>
  <circle cx="520" cy="93" r="3"/><circle cx="530" cy="95" r="3"/>
  <circle cx="488" cy="112" r="3"/><circle cx="498" cy="110" r="3"/><circle cx="508" cy="108" r="3"/>
  <circle cx="518" cy="108" r="3"/><circle cx="528" cy="110" r="3"/><circle cx="538" cy="105" r="3"/>
  <circle cx="548" cy="100" r="3"/>
  <!-- Southern Europe -->
  <circle cx="492" cy="125" r="3"/><circle cx="505" cy="122" r="3"/><circle cx="518" cy="120" r="3"/>
  <circle cx="530" cy="122" r="3"/><circle cx="542" cy="118" r="3"/><circle cx="555" cy="115" r="3"/>
  <circle cx="500" cy="138" r="3"/><circle cx="515" cy="135" r="3"/><circle cx="530" cy="135" r="3"/>
  <!-- Eastern Europe -->
  <circle cx="555" cy="80" r="3"/><circle cx="565" cy="78" r="3"/><circle cx="575" cy="82" r="3"/>
  <circle cx="558" cy="92" r="3"/><circle cx="568" cy="90" r="3"/><circle cx="578" cy="93" r="3"/>
  <circle cx="588" cy="88" r="3"/><circle cx="598" cy="85" r="3"/>
</g>

<!-- Africa -->
<g class="land">
  <circle cx="505" cy="185" r="3"/><circle cx="520" cy="182" r="3"/><circle cx="535" cy="180" r="3"/>
  <circle cx="550" cy="182" r="3"/><circle cx="565" cy="185" r="3"/>
  <circle cx="500" cy="200" r="3"/><circle cx="515" cy="197" r="3"/><circle cx="530" cy="195" r="3"/>
  <circle cx="545" cy="197" r="3"/><circle cx="560" cy="200" r="3"/><circle cx="572" cy="203" r="3"/>
  <circle cx="498" cy="218" r="3"/><circle cx="513" cy="215" r="3"/><circle cx="528" cy="212" r="3"/>
  <circle cx="543" cy="212" r="3"/><circle cx="558" cy="215" r="3"/><circle cx="570" cy="220" r="3"/>
  <circle cx="505" cy="235" r="3"/><circle cx="520" cy="232" r="3"/><circle cx="535" cy="230" r="3"/>
  <circle cx="550" cy="232" r="3"/><circle cx="565" cy="235" r="3"/>
  <circle cx="510" cy="252" r="3"/><circle cx="525" cy="250" r="3"/><circle cx="540" cy="248" r="3"/>
  <circle cx="555" cy="250" r="3"/>
  <circle cx="515" cy="270" r="3"/><circle cx="530" cy="268" r="3"/><circle cx="545" cy="268" r="3"/>
  <circle cx="558" cy="272" r="3"/>
  <circle cx="520" cy="288" r="3"/><circle cx="535" cy="285" r="3"/><circle cx="548" cy="288" r="3"/>
  <circle cx="525" cy="305" r="3"/><circle cx="540" cy="302" r="3"/>
  <circle cx="530" cy="320" r="3"/><circle cx="542" cy="318" r="3"/>
  <circle cx="535" cy="335" r="3"/>
</g>

<!-- Middle East -->
<g class="land">
  <circle cx="580" cy="150" r="3"/><circle cx="595" cy="148" r="3"/><circle cx="610" cy="150" r="3"/>
  <circle cx="625" cy="153" r="3"/>
  <circle cx="585" cy="165" r="3"/><circle cx="600" cy="162" r="3"/><circle cx="615" cy="162" r="3"/>
  <circle cx="630" cy="165" r="3"/><circle cx="640" cy="170" r="3"/>
  <circle cx="595" cy="178" r="3"/><circle cx="610" cy="175" r="3"/><circle cx="625" cy="175" r="3"/>
</g>

<!-- Asia -->
<g class="land">
  <!-- Russia / Central Asia -->
  <circle cx="610" cy="70" r="3"/><circle cx="630" cy="68" r="3"/><circle cx="650" cy="65" r="3"/>
  <circle cx="670" cy="63" r="3"/><circle cx="690" cy="60" r="3"/><circle cx="710" cy="58" r="3"/>
  <circle cx="730" cy="57" r="3"/><circle cx="750" cy="58" r="3"/><circle cx="770" cy="60" r="3"/>
  <circle cx="790" cy="63" r="3"/><circle cx="810" cy="65" r="3"/><circle cx="830" cy="63" r="3"/>
  <circle cx="850" cy="60" r="3"/><circle cx="870" cy="62" r="3"/>
  <circle cx="620" cy="85" r="3"/><circle cx="640" cy="82" r="3"/><circle cx="660" cy="80" r="3"/>
  <circle cx="680" cy="78" r="3"/><circle cx="700" cy="76" r="3"/><circle cx="720" cy="75" r="3"/>
  <circle cx="740" cy="76" r="3"/><circle cx="760" cy="78" r="3"/><circle cx="780" cy="80" r="3"/>
  <circle cx="800" cy="78" r="3"/><circle cx="820" cy="77" r="3"/><circle cx="840" cy="78" r="3"/>
  <circle cx="860" cy="80" r="3"/>
  <!-- China / Mongolia -->
  <circle cx="700" cy="95" r="3"/><circle cx="720" cy="93" r="3"/><circle cx="740" cy="92" r="3"/>
  <circle cx="760" cy="93" r="3"/><circle cx="780" cy="95" r="3"/><circle cx="800" cy="93" r="3"/>
  <circle cx="820" cy="92" r="3"/><circle cx="840" cy="93" r="3"/>
  <circle cx="710" cy="110" r="3"/><circle cx="730" cy="108" r="3"/><circle cx="750" cy="107" r="3"/>
  <circle cx="770" cy="108" r="3"/><circle cx="790" cy="110" r="3"/><circle cx="810" cy="108" r="3"/>
  <circle cx="830" cy="110" r="3"/>
  <circle cx="720" cy="125" r="3"/><circle cx="740" cy="123" r="3"/><circle cx="760" cy="122" r="3"/>
  <circle cx="780" cy="123" r="3"/><circle cx="800" cy="125" r="3"/><circle cx="820" cy="127" r="3"/>
  <!-- Southeast Asia -->
  <circle cx="780" cy="140" r="3"/><circle cx="795" cy="140" r="3"/><circle cx="810" cy="142" r="3"/>
  <circle cx="785" cy="155" r="3"/><circle cx="800" cy="155" r="3"/><circle cx="815" cy="158" r="3"/>
  <circle cx="790" cy="170" r="3"/><circle cx="805" cy="172" r="3"/><circle cx="820" cy="175" r="3"/>
  <circle cx="810" cy="190" r="3"/><circle cx="825" cy="192" r="3"/>
  <circle cx="830" cy="205" r="3"/><circle cx="845" cy="200" r="3"/>
  <!-- Japan / Korea -->
  <circle cx="855" cy="100" r="3"/><circle cx="862" cy="112" r="3"/><circle cx="858" cy="125" r="3"/>
  <circle cx="845" cy="108" r="3"/><circle cx="840" cy="120" r="3"/>
</g>

<!-- India (highlighted) -->
<g class="india">
  <circle cx="665" cy="140" r="3.5"/><circle cx="680" cy="138" r="3.5"/><circle cx="695" cy="140" r="3.5"/>
  <circle cx="660" cy="155" r="3.5"/><circle cx="675" cy="152" r="3.5"/><circle cx="690" cy="153" r="3.5"/>
  <circle cx="655" cy="170" r="3.5"/><circle cx="670" cy="167" r="3.5"/><circle cx="685" cy="168" r="3.5"/>
  <circle cx="660" cy="185" r="3.5"/><circle cx="675" cy="182" r="3.5"/><circle cx="688" cy="183" r="3.5"/>
  <circle cx="668" cy="198" r="3.5"/><circle cx="680" cy="197" r="3.5"/>
  <circle cx="675" cy="213" r="3.5"/>
  <!-- Glow ring around India cluster -->
  <circle cx="675" cy="175" r="40" fill="none" stroke="rgba(96,165,250,0.12)" stroke-width="1.5"/>
  <circle cx="675" cy="175" r="55" fill="none" stroke="rgba(96,165,250,0.06)" stroke-width="1"/>
</g>

<!-- Australia -->
<g class="land">
  <circle cx="850" cy="310" r="3"/><circle cx="865" cy="305" r="3"/><circle cx="880" cy="302" r="3"/>
  <circle cx="895" cy="305" r="3"/><circle cx="910" cy="308" r="3"/>
  <circle cx="845" cy="325" r="3"/><circle cx="860" cy="320" r="3"/><circle cx="875" cy="318" r="3"/>
  <circle cx="890" cy="318" r="3"/><circle cx="905" cy="320" r="3"/><circle cx="918" cy="325" r="3"/>
  <circle cx="850" cy="340" r="3"/><circle cx="865" cy="337" r="3"/><circle cx="880" cy="335" r="3"/>
  <circle cx="895" cy="337" r="3"/><circle cx="908" cy="340" r="3"/>
  <circle cx="860" cy="355" r="3"/><circle cx="875" cy="352" r="3"/><circle cx="890" cy="352" r="3"/>
  <circle cx="903" cy="355" r="3"/>
  <circle cx="870" cy="368" r="3"/><circle cx="885" cy="365" r="3"/><circle cx="898" cy="368" r="3"/>
  <!-- New Zealand -->
  <circle cx="940" cy="370" r="2.5"/><circle cx="945" cy="382" r="2.5"/><circle cx="942" cy="395" r="2.5"/>
</g>

<!-- Trade route arcs from India (dashed) -->
<g stroke="rgba(96,165,250,0.18)" stroke-width="1" fill="none" stroke-dasharray="4,6">
  <!-- India → USA -->
  <path d="M660,170 Q450,80 230,135"/>
  <!-- India → Europe -->
  <path d="M660,155 Q580,100 510,105"/>
  <!-- India → Japan -->
  <path d="M695,145 Q770,100 855,110"/>
  <!-- India → Australia -->
  <path d="M680,210 Q780,280 870,320"/>
  <!-- India → Middle East -->
  <path d="M655,165 Q630,160 610,160"/>
  <!-- India → Southeast Asia -->
  <path d="M695,170 Q740,165 790,170"/>
  <!-- India → Africa -->
  <path d="M655,185 Q580,210 535,230"/>
</g>

<!-- Pulse dots at destination endpoints -->
<g>
  <circle cx="230" cy="135" r="2.5" fill="rgba(96,165,250,0.35)"><animate attributeName="r" values="2.5;4;2.5" dur="3s" repeatCount="indefinite"/><animate attributeName="opacity" values="0.5;1;0.5" dur="3s" repeatCount="indefinite"/></circle>
  <circle cx="510" cy="105" r="2.5" fill="rgba(96,165,250,0.35)"><animate attributeName="r" values="2.5;4;2.5" dur="3s" begin="0.4s" repeatCount="indefinite"/><animate attributeName="opacity" values="0.5;1;0.5" dur="3s" begin="0.4s" repeatCount="indefinite"/></circle>
  <circle cx="855" cy="110" r="2.5" fill="rgba(96,165,250,0.35)"><animate attributeName="r" values="2.5;4;2.5" dur="3s" begin="0.8s" repeatCount="indefinite"/><animate attributeName="opacity" values="0.5;1;0.5" dur="3s" begin="0.8s" repeatCount="indefinite"/></circle>
  <circle cx="870" cy="320" r="2.5" fill="rgba(96,165,250,0.35)"><animate attributeName="r" values="2.5;4;2.5" dur="3s" begin="1.2s" repeatCount="indefinite"/><animate attributeName="opacity" values="0.5;1;0.5" dur="3s" begin="1.2s" repeatCount="indefinite"/></circle>
  <circle cx="610" cy="160" r="2.5" fill="rgba(96,165,250,0.35)"><animate attributeName="r" values="2.5;4;2.5" dur="3s" begin="1.6s" repeatCount="indefinite"/><animate attributeName="opacity" values="0.5;1;0.5" dur="3s" begin="1.6s" repeatCount="indefinite"/></circle>
  <circle cx="790" cy="170" r="2.5" fill="rgba(96,165,250,0.35)"><animate attributeName="r" values="2.5;4;2.5" dur="3s" begin="2s" repeatCount="indefinite"/><animate attributeName="opacity" values="0.5;1;0.5" dur="3s" begin="2s" repeatCount="indefinite"/></circle>
  <circle cx="535" cy="230" r="2.5" fill="rgba(96,165,250,0.35)"><animate attributeName="r" values="2.5;4;2.5" dur="3s" begin="2.4s" repeatCount="indefinite"/><animate attributeName="opacity" values="0.5;1;0.5" dur="3s" begin="2.4s" repeatCount="indefinite"/></circle>
  <!-- India origin pulse -->
  <circle cx="675" cy="175" r="4" fill="rgba(96,165,250,0.5)"><animate attributeName="r" values="4;7;4" dur="2s" repeatCount="indefinite"/><animate attributeName="opacity" values="0.7;0.3;0.7" dur="2s" repeatCount="indefinite"/></circle>
</g>
</svg>
